<svg width="1721" height="1080" viewBox="0 0 1721 1080" fill="none" xmlns="http://www.w3.org/2000/svg">
<g clip-path="url(#clip0_238_152)">
<rect width="1721" height="1080" fill="#3A5BC4"/>
<path d="M848.731 0C848.735 0.137999 857.84 359.07 775.157 566.272C760.234 603.669 741.789 641.617 721.105 679.228C783.797 665.839 845.143 654.383 903.105 645.82C1263.52 592.576 1835.46 677.756 1836.03 677.84L1836.03 1171.84C1836.03 1171.84 1288 766.639 880.171 751.384C812.103 748.838 739.425 756.836 665.51 771.971C540.925 964.886 383.46 1127.5 383.46 1127.5L127.209 1113.5C127.209 1113.5 397.207 983.302 568.411 795.552C224.334 891.381 -114.796 1108.21 -115 1108.34V922C-115 922 273.764 782.793 644.627 696.331C676.456 645.168 698.276 591.183 704.354 535.503C728.443 314.845 512.7 0.158855 512.591 0H848.731ZM1003.31 311.968C1003.92 310.148 1006.5 310.148 1007.1 311.968L1037.01 401.306C1037.28 402.121 1038.05 402.671 1038.91 402.671H1135.56C1137.51 402.671 1138.31 405.181 1136.71 406.306L1058.62 461.372C1057.9 461.881 1057.6 462.804 1057.88 463.642L1087.73 552.812C1088.34 554.645 1086.26 556.195 1084.68 555.082L1006.36 499.852C1005.67 499.365 1004.75 499.365 1004.06 499.852L925.734 555.082C924.155 556.195 922.071 554.645 922.685 552.812L952.536 463.642C952.817 462.804 952.515 461.881 951.793 461.372L873.703 406.306C872.108 405.181 872.904 402.671 874.855 402.671H971.508C972.368 402.671 973.131 402.121 973.404 401.306L1003.31 311.968Z" fill="white"/>
</g>
<defs>
<clipPath id="clip0_238_152">
<rect width="1721" height="1080" fill="white"/>
</clipPath>
</defs>
</svg>
